<svg width="1130" height="250" viewBox="0 0 1130 250" fill="none" xmlns="http://www.w3.org/2000/svg">
<path d="M1019.16 183.342C991.945 183.342 972.391 164.114 972.391 136.903C972.391 109.691 991.945 90.464 1019.16 90.464C1046.53 90.464 1066.25 109.691 1066.25 136.903C1066.25 164.114 1046.53 183.342 1019.16 183.342ZM1019.16 164.929C1033.98 164.929 1044.25 153.523 1044.25 136.903C1044.25 120.283 1033.98 108.877 1019.16 108.877C1004.49 108.877 994.226 120.283 994.226 136.903C994.226 153.523 1004.49 164.929 1019.16 164.929Z" fill="black"/>
<path d="M861.518 182.072L828.929 91.8017H852.23L872.109 152.905L891.826 91.8017H912.031L931.91 152.905L951.463 91.8017H974.275L941.686 182.072H921.318L901.602 123.413L881.886 182.072H861.518Z" fill="black"/>
<path d="M810.991 183.367C793.719 183.367 780.847 172.938 780.847 153.711V109.39H767.811V91.7925H780.847V73.054H802.518V91.7925H821.908V109.39H802.518V151.756C802.518 160.066 807.08 164.628 813.924 164.628C816.857 164.628 820.279 163.976 823.049 162.999V181.085C819.464 182.552 815.553 183.367 810.991 183.367Z" fill="black"/>
<path d="M691.778 211.728L704.977 180.606L669.618 91.8017H693.082L716.22 153.068L739.195 91.8017H762.007L714.427 211.728H691.778Z" fill="black"/>
<path d="M652.495 183.367C635.223 183.367 622.351 172.938 622.351 153.711V109.39H609.315V91.7925H622.351V73.054H644.022V91.7925H663.413V109.39H644.022V151.756C644.022 160.066 648.585 164.628 655.428 164.628C658.361 164.628 661.783 163.976 664.553 162.999V181.085C660.968 182.552 657.058 183.367 652.495 183.367Z" fill="black"/>
<path d="M542.522 182.038V91.7675H564.194V104.477C568.756 96.167 579.184 90.464 589.776 90.464C594.012 90.464 597.76 91.1157 600.693 92.2564V112.95C597.108 111.484 592.872 110.669 588.961 110.669C575.6 110.669 564.194 122.238 564.194 148.798V182.038H542.522Z" fill="black"/>
<path d="M486.046 183.342C458.834 183.342 439.281 164.114 439.281 136.903C439.281 109.691 458.834 90.464 486.046 90.464C513.42 90.464 533.136 109.691 533.136 136.903C533.136 164.114 513.42 183.342 486.046 183.342ZM486.046 164.929C500.874 164.929 511.139 153.523 511.139 136.903C511.139 120.283 500.874 108.877 486.046 108.877C471.381 108.877 461.115 120.283 461.115 136.903C461.115 153.523 471.381 164.929 486.046 164.929Z" fill="black"/>
<path d="M361.009 182.061V68.0006H438.407V86.902H383.17V113.299H427.816V132.2H383.17V182.061H361.009Z" fill="black"/>
<rect x="310.689" y="67.9432" width="114.153" height="49.0858" transform="rotate(90 310.689 67.9432)" fill="black"/>
<rect x="245.622" y="67.9397" width="114.153" height="49.0858" transform="rotate(90 245.622 67.9397)" fill="black"/>
<ellipse cx="90.9442" cy="92.5967" rx="26.2552" ry="26.2552" transform="rotate(-180 90.9442 92.5967)" fill="black"/>
<ellipse cx="90.9442" cy="157.436" rx="26.2552" ry="26.2552" transform="rotate(-180 90.9442 157.436)" fill="black"/>
<ellipse cx="156.24" cy="92.5967" rx="26.2552" ry="26.2552" transform="rotate(-180 156.24 92.5967)" fill="black"/>
<circle cx="156.24" cy="157.436" r="26.2552" transform="rotate(-180 156.24 157.436)" fill="black"/>
</svg>
