<svg width="1130" height="250" viewBox="0 0 1130 250" fill="none" xmlns="http://www.w3.org/2000/svg">
<path d="M1018.47 183.342C991.256 183.342 971.702 164.114 971.702 136.903C971.702 109.691 991.256 90.464 1018.47 90.464C1045.84 90.464 1065.56 109.691 1065.56 136.903C1065.56 164.114 1045.84 183.342 1018.47 183.342ZM1018.47 164.929C1033.3 164.929 1043.56 153.523 1043.56 136.903C1043.56 120.283 1033.3 108.877 1018.47 108.877C1003.8 108.877 993.537 120.283 993.537 136.903C993.537 153.523 1003.8 164.929 1018.47 164.929Z" fill="white"/>
<path d="M860.829 182.072L828.24 91.8017H851.541L871.42 152.905L891.137 91.8017H911.342L931.221 152.905L950.774 91.8017H973.586L940.997 182.072H920.629L900.913 123.413L881.197 182.072H860.829Z" fill="white"/>
<path d="M810.302 183.367C793.03 183.367 780.158 172.938 780.158 153.711V109.39H767.122V91.7925H780.158V73.054H801.829V91.7925H821.219V109.39H801.829V151.756C801.829 160.066 806.391 164.628 813.235 164.628C816.168 164.628 819.59 163.976 822.36 162.999V181.085C818.775 182.552 814.864 183.367 810.302 183.367Z" fill="white"/>
<path d="M691.089 211.728L704.288 180.606L668.929 91.8017H692.393L715.531 153.068L738.506 91.8017H761.318L713.738 211.728H691.089Z" fill="white"/>
<path d="M651.806 183.367C634.534 183.367 621.662 172.938 621.662 153.711V109.39H608.626V91.7925H621.662V73.054H643.333V91.7925H662.724V109.39H643.333V151.756C643.333 160.066 647.896 164.628 654.739 164.628C657.672 164.628 661.094 163.976 663.864 162.999V181.085C660.28 182.552 656.369 183.367 651.806 183.367Z" fill="white"/>
<path d="M541.833 182.038V91.7675H563.505V104.477C568.067 96.167 578.496 90.464 589.087 90.464C593.323 90.464 597.071 91.1157 600.004 92.2563V112.95C596.419 111.484 592.183 110.669 588.272 110.669C574.911 110.669 563.505 122.238 563.505 148.798V182.038H541.833Z" fill="white"/>
<path d="M485.357 183.342C458.145 183.342 438.592 164.114 438.592 136.903C438.592 109.691 458.145 90.464 485.357 90.464C512.731 90.464 532.447 109.691 532.447 136.903C532.447 164.114 512.731 183.342 485.357 183.342ZM485.357 164.929C500.185 164.929 510.45 153.523 510.45 136.903C510.45 120.283 500.185 108.877 485.357 108.877C470.692 108.877 460.426 120.283 460.426 136.903C460.426 153.523 470.692 164.929 485.357 164.929Z" fill="white"/>
<path d="M360.32 182.061V68.0006H437.718V86.902H382.481V113.299H427.127V132.2H382.481V182.061H360.32Z" fill="white"/>
<rect x="310" y="67.9432" width="114.153" height="49.0858" transform="rotate(90 310 67.9432)" fill="white"/>
<rect x="244.933" y="67.9397" width="114.153" height="49.0858" transform="rotate(90 244.933 67.9397)" fill="white"/>
<ellipse cx="90.2553" cy="92.5967" rx="26.2552" ry="26.2552" transform="rotate(-180 90.2553 92.5967)" fill="white"/>
<ellipse cx="90.2553" cy="157.436" rx="26.2552" ry="26.2552" transform="rotate(-180 90.2553 157.436)" fill="white"/>
<ellipse cx="155.551" cy="92.5967" rx="26.2552" ry="26.2552" transform="rotate(-180 155.551 92.5967)" fill="white"/>
<circle cx="155.551" cy="157.436" r="26.2552" transform="rotate(-180 155.551 157.436)" fill="white"/>
</svg>
