<svg class="shrink-0 max-lg:hidden" width="246" height="36" viewBox="0 0 246 36" fill="none" xmlns="http://www.w3.org/2000/svg"><path d="M234.408 29.0272C227.724 29.0272 222.922 24.3047 222.922 17.6211C222.922 10.9376 227.724 6.21509 234.408 6.21509C241.132 6.21509 245.974 10.9376 245.974 17.6211C245.974 24.3047 241.132 29.0272 234.408 29.0272ZM234.408 24.5048C238.05 24.5048 240.571 21.7033 240.571 17.6211C240.571 13.539 238.05 10.7375 234.408 10.7375C230.806 10.7375 228.285 13.539 228.285 17.6211C228.285 21.7033 230.806 24.5048 234.408 24.5048Z" fill="white"></path><path d="M195.692 28.7152L187.688 6.54346H193.411L198.293 21.5514L203.136 6.54346H208.098L212.981 21.5514L217.783 6.54346H223.386L215.382 28.7152H210.38L205.537 14.3076L200.694 28.7152H195.692Z" fill="white"></path><path d="M183.277 29.0333C179.035 29.0333 175.874 26.472 175.874 21.7495V10.8637H172.672V6.5414H175.874V1.93896H181.196V6.5414H185.959V10.8637H181.196V21.2692C181.196 23.3103 182.317 24.4309 183.998 24.4309C184.718 24.4309 185.559 24.2708 186.239 24.0307V28.473C185.359 28.8332 184.398 29.0333 183.277 29.0333Z" fill="white"></path><path d="M153.998 35.999L157.239 28.355L148.555 6.54346H154.318L160.001 21.5914L165.644 6.54346H171.247L159.561 35.999H153.998Z" fill="white"></path><path d="M144.348 29.0333C140.106 29.0333 136.944 26.472 136.944 21.7495V10.8637H133.742V6.5414H136.944V1.93896H142.267V6.5414H147.029V10.8637H142.267V21.2692C142.267 23.3103 143.387 24.4309 145.068 24.4309C145.789 24.4309 146.629 24.2708 147.309 24.0307V28.473C146.429 28.8332 145.468 29.0333 144.348 29.0333Z" fill="white"></path><path d="M117.344 28.707V6.53526H122.667V9.65691C123.787 7.61583 126.349 6.21509 128.95 6.21509C129.99 6.21509 130.911 6.37517 131.631 6.65532V11.738C130.751 11.3778 129.71 11.1777 128.75 11.1777C125.468 11.1777 122.667 14.0192 122.667 20.5427V28.707H117.344Z" fill="white"></path><path d="M103.47 29.0272C96.7869 29.0272 91.9844 24.3047 91.9844 17.6211C91.9844 10.9376 96.7869 6.21509 103.47 6.21509C110.194 6.21509 115.037 10.9376 115.037 17.6211C115.037 24.3047 110.194 29.0272 103.47 29.0272ZM103.47 24.5048C107.112 24.5048 109.634 21.7033 109.634 17.6211C109.634 13.539 107.112 10.7375 103.47 10.7375C99.8685 10.7375 97.3472 13.539 97.3472 17.6211C97.3472 21.7033 99.8685 24.5048 103.47 24.5048Z" fill="white"></path><path d="M72.7656 28.7126V0.697754H91.7757V5.34021H78.2085V11.8236H89.1743V16.4661H78.2085V28.7126H72.7656Z" fill="white"></path><rect x="60.4219" y="0.393311" width="28.0376" height="12.0562" transform="rotate(90 60.4219 0.393311)" fill="white"></rect><rect x="44.4375" y="0.392334" width="28.0376" height="12.0562" transform="rotate(90 44.4375 0.392334)" fill="white"></rect><ellipse cx="6.44979" cy="6.44857" rx="6.44865" ry="6.44865" transform="rotate(-180 6.44979 6.44857)" fill="white"></ellipse><ellipse cx="6.44979" cy="22.3741" rx="6.44865" ry="6.44865" transform="rotate(-180 6.44979 22.3741)" fill="white"></ellipse><ellipse cx="22.481" cy="6.44857" rx="6.44865" ry="6.44865" transform="rotate(-180 22.481 6.44857)" fill="white"></ellipse><circle cx="22.481" cy="22.3741" r="6.44865" transform="rotate(-180 22.481 22.3741)" fill="white"></circle></svg>
